<svg width="30" height="30" viewBox="0 0 30 30" fill="none" xmlns="http://www.w3.org/2000/svg">
<path d="M16.25 23.75C16.25 19.6125 19.6125 16.25 23.75 16.25C25.125 16.25 26.4 16.625 27.5 17.2625V7.5C27.5 6.83696 27.2366 6.20107 26.7678 5.73223C26.2989 5.26339 25.663 5 25 5H5C3.6125 5 2.5 6.1125 2.5 7.5V22.5C2.5 23.163 2.76339 23.7989 3.23223 24.2678C3.70107 24.7366 4.33696 25 5 25H16.3625C16.3 24.5875 16.25 24.175 16.25 23.75ZM5 10V7.5L15 13.75L25 7.5V10L15 16.25L5 10ZM25 27.5V25H20V22.5H25V20L28.75 23.75L25 27.5Z" fill="black"/>
</svg>
