<svg width="40" height="40" viewBox="0 0 40 40" fill="none" xmlns="http://www.w3.org/2000/svg">
<path d="M20 3.33334C17.8113 3.33334 15.6441 3.76444 13.622 4.60202C11.5999 5.4396 9.76257 6.66725 8.21493 8.2149C5.08932 11.3405 3.33337 15.5797 3.33337 20C3.33337 24.4203 5.08932 28.6595 8.21493 31.7851C9.76257 33.3328 11.5999 34.5604 13.622 35.398C15.6441 36.2356 17.8113 36.6667 20 36.6667C24.4203 36.6667 28.6595 34.9107 31.7852 31.7851C34.9108 28.6595 36.6667 24.4203 36.6667 20C36.6667 17.8113 36.2356 15.644 35.398 13.622C34.5605 11.5999 33.3328 9.76254 31.7852 8.2149C30.2375 6.66725 28.4002 5.4396 26.3781 4.60202C24.356 3.76444 22.1887 3.33334 20 3.33334ZM10 11.6667H30V15H10V11.6667ZM10 18.3333H30V21.6667H10V18.3333ZM10 25H30V28.3333H10V25Z" fill="#D9D9D9"/>
</svg>
