<svg width="30" height="30" viewBox="0 0 30 30" fill="none" xmlns="http://www.w3.org/2000/svg">
<path d="M27.5 15C27.4993 11.685 26.1822 8.50596 23.8381 6.1619C21.494 3.81784 18.315 2.50066 15 2.5V5C16.9776 5.00045 18.9107 5.58704 20.5551 6.68567C22.1995 7.7843 23.4814 9.34566 24.2388 11.1725C24.7414 12.386 25.0001 13.6866 25 15H27.5ZM2.5 12.5V6.25C2.5 5.91848 2.6317 5.60054 2.86612 5.36612C3.10054 5.1317 3.41848 5 3.75 5H10C10.3315 5 10.6495 5.1317 10.8839 5.36612C11.1183 5.60054 11.25 5.91848 11.25 6.25V11.25C11.25 11.5815 11.1183 11.8995 10.8839 12.1339C10.6495 12.3683 10.3315 12.5 10 12.5H7.5C7.5 15.1522 8.55357 17.6957 10.4289 19.5711C12.3043 21.4464 14.8478 22.5 17.5 22.5V20C17.5 19.6685 17.6317 19.3505 17.8661 19.1161C18.1005 18.8817 18.4185 18.75 18.75 18.75H23.75C24.0815 18.75 24.3995 18.8817 24.6339 19.1161C24.8683 19.3505 25 19.6685 25 20V26.25C25 26.5815 24.8683 26.8995 24.6339 27.1339C24.3995 27.3683 24.0815 27.5 23.75 27.5H17.5C9.21625 27.5 2.5 20.7838 2.5 12.5Z" fill="black"/>
<path d="M21.9287 12.13C22.3061 13.0398 22.5002 14.0151 22.5 15H20.25C20.2502 14.3105 20.1145 13.6278 19.8507 12.9907C19.5869 12.3537 19.2002 11.7749 18.7127 11.2873C18.2251 10.7998 17.6463 10.4131 17.0093 10.1493C16.3722 9.88552 15.6895 9.74984 15 9.75V7.5C16.4833 7.50008 17.9333 7.94 19.1666 8.76413C20.3999 9.58826 21.3611 10.7596 21.9287 12.13Z" fill="black"/>
</svg>
